<svg width="284" height="328" viewBox="0 0 284 328" fill="none" xmlns="http://www.w3.org/2000/svg">
<ellipse cx="133.548" cy="166.357" rx="69.3095" ry="65.6434" fill="white"/>
<path d="M153.833 135.783C153.833 175.017 119.397 206.822 76.9167 206.822C34.4368 206.822 0 175.017 0 135.783C0 96.5493 34.4368 64.7442 76.9167 64.7442C119.397 64.7442 153.833 96.5493 153.833 135.783Z" fill="white"/>
<path d="M231.595 97.1163C231.595 150.752 192.996 194.233 145.381 194.233C97.7661 194.233 59.1667 150.752 59.1667 97.1163C59.1667 43.4804 97.7661 0 145.381 0C192.996 0 231.595 43.4804 231.595 97.1163Z" fill="white"/>
<ellipse cx="214.69" cy="137.581" rx="69.3095" ry="65.6434" fill="white"/>
<path d="M116.953 81.12L108.85 73.0167C95.25 83.3867 86.2967 99.3667 85.5033 117.5H96.8367C97.6867 102.483 105.393 89.3367 116.953 81.12ZM187.163 117.5H198.497C197.647 99.3667 188.693 83.3867 175.15 73.0167L167.103 81.12C178.55 89.3367 186.313 102.483 187.163 117.5ZM176 120.333C176 102.937 166.707 88.3733 150.5 84.52V80.6667C150.5 75.9633 146.703 72.1667 142 72.1667C137.297 72.1667 133.5 75.9633 133.5 80.6667V84.52C117.237 88.3733 108 102.88 108 120.333V148.667L96.6667 160V165.667H187.333V160L176 148.667V120.333ZM142 182.667C142.793 182.667 143.53 182.61 144.267 182.44C147.95 181.647 150.953 179.153 152.427 175.753C152.993 174.393 153.277 172.92 153.277 171.333H130.61C130.667 177.567 135.71 182.667 142 182.667Z" fill="#FD3A10" fill-opacity="0.67"/>
<path d="M110.953 77.12L102.85 69.0167C89.25 79.3867 80.2967 95.3667 79.5033 113.5H90.8367C91.6867 98.4833 99.3933 85.3367 110.953 77.12ZM181.163 113.5H192.497C191.647 95.3667 182.693 79.3867 169.15 69.0167L161.103 77.12C172.55 85.3367 180.313 98.4833 181.163 113.5ZM170 116.333C170 98.9367 160.707 84.3733 144.5 80.52V76.6667C144.5 71.9633 140.703 68.1667 136 68.1667C131.297 68.1667 127.5 71.9633 127.5 76.6667V80.52C111.237 84.3733 102 98.88 102 116.333V144.667L90.6667 156V161.667H181.333V156L170 144.667V116.333ZM136 178.667C136.793 178.667 137.53 178.61 138.267 178.44C141.95 177.647 144.953 175.153 146.427 171.753C146.993 170.393 147.277 168.92 147.277 167.333H124.61C124.667 173.567 129.71 178.667 136 178.667Z" fill="#FD9E10"/>
<path d="M26 242L42 221L37 237L55 236.5L39 258.5L45 242H26Z" fill="#D71818"/>
<path d="M146.6 298.91L137.857 249.811L152.257 281.793L171.012 267.327L180.991 318.189L167.049 284.571L146.6 298.91Z" fill="#D71818"/>
<path d="M250.584 213.211L270.353 230.709L254.763 224.548L253.941 242.537L233.174 224.965L249.189 232.16L250.584 213.211Z" fill="#D71818"/>
</svg>
